<svg class="main-svg" xmlns="http://www.w3.org/2000/svg" xmlns:xlink="http://www.w3.org/1999/xlink" width="800" height="800" style="" viewBox="0 0 800 800"><rect x="0" y="0" width="800" height="800" style="fill: rgb(255, 255, 255); fill-opacity: 1;"/><defs id="defs-d68966"><g class="clips"><clipPath id="clipd68966xyplot" class="plotclip"><rect width="471" height="694"/></clipPath><clipPath id="clipd68966xy2plot" class="plotclip"><rect width="471" height="694"/></clipPath><clipPath class="axesclip" id="clipd68966x"><rect x="154" y="0" width="471" height="800"/></clipPath><clipPath class="axesclip" id="clipd68966y"><rect x="0" y="7" width="800" height="694"/></clipPath><clipPath class="axesclip" id="clipd68966xy"><rect x="154" y="7" width="471" height="694"/></clipPath><clipPath class="axesclip" id="clipd68966y2"><rect x="0" y="7" width="800" height="694"/></clipPath><clipPath class="axesclip" id="clipd68966xy2"><rect x="154" y="7" width="471" height="694"/></clipPath></g><g class="gradients"/><g class="patterns"/></defs><g class="bglayer"/><g class="layer-below"><g class="imagelayer"/><g class="shapelayer"/></g><g class="cartesianlayer"><g class="subplot xy"><g class="layer-subplot"><g class="shapelayer"/><g class="imagelayer"/></g><g class="minor-gridlayer"><g class="x"/><g class="y"/></g><g class="gridlayer"><g class="x"><path class="xgrid crisp" transform="translate(181.3,0)" d="M0,7v694" style="stroke: rgb(211, 211, 211); stroke-opacity: 1; stroke-width: 1px;"/><path class="xgrid crisp" transform="translate(597.7,0)" d="M0,7v694" style="stroke: rgb(211, 211, 211); stroke-opacity: 1; stroke-width: 1px;"/></g><g class="y"><path class="ygrid crisp" transform="translate(0,684.77)" d="M154,0h471" style="stroke: rgb(211, 211, 211); stroke-opacity: 1; stroke-width: 1px;"/><path class="ygrid crisp" transform="translate(0,669.77)" d="M154,0h471" style="stroke: rgb(211, 211, 211); stroke-opacity: 1; stroke-width: 1px;"/><path class="ygrid crisp" transform="translate(0,656.53)" d="M154,0h471" style="stroke: rgb(211, 211, 211); stroke-opacity: 1; stroke-width: 1px;"/><path class="ygrid crisp" transform="translate(0,644.7)" d="M154,0h471" style="stroke: rgb(211, 211, 211); stroke-opacity: 1; stroke-width: 1px;"/><path class="ygrid crisp" transform="translate(0,566.82)" d="M154,0h471" style="stroke: rgb(211, 211, 211); stroke-opacity: 1; stroke-width: 1px;"/><path class="ygrid crisp" transform="translate(0,521.26)" d="M154,0h471" style="stroke: rgb(211, 211, 211); stroke-opacity: 1; stroke-width: 1px;"/><path class="ygrid crisp" transform="translate(0,488.94)" d="M154,0h471" style="stroke: rgb(211, 211, 211); stroke-opacity: 1; stroke-width: 1px;"/><path class="ygrid crisp" transform="translate(0,463.87)" d="M154,0h471" style="stroke: rgb(211, 211, 211); stroke-opacity: 1; stroke-width: 1px;"/><path class="ygrid crisp" transform="translate(0,443.39)" d="M154,0h471" style="stroke: rgb(211, 211, 211); stroke-opacity: 1; stroke-width: 1px;"/><path class="ygrid crisp" transform="translate(0,426.07)" d="M154,0h471" style="stroke: rgb(211, 211, 211); stroke-opacity: 1; stroke-width: 1px;"/><path class="ygrid crisp" transform="translate(0,411.06)" d="M154,0h471" style="stroke: rgb(211, 211, 211); stroke-opacity: 1; stroke-width: 1px;"/><path class="ygrid crisp" transform="translate(0,397.83)" d="M154,0h471" style="stroke: rgb(211, 211, 211); stroke-opacity: 1; stroke-width: 1px;"/><path class="ygrid crisp" transform="translate(0,385.99)" d="M154,0h471" style="stroke: rgb(211, 211, 211); stroke-opacity: 1; stroke-width: 1px;"/><path class="ygrid crisp" transform="translate(0,308.11)" d="M154,0h471" style="stroke: rgb(211, 211, 211); stroke-opacity: 1; stroke-width: 1px;"/><path class="ygrid crisp" transform="translate(0,262.56)" d="M154,0h471" style="stroke: rgb(211, 211, 211); stroke-opacity: 1; stroke-width: 1px;"/><path class="ygrid crisp" transform="translate(0,230.24)" d="M154,0h471" style="stroke: rgb(211, 211, 211); stroke-opacity: 1; stroke-width: 1px;"/><path class="ygrid crisp" transform="translate(0,205.17)" d="M154,0h471" style="stroke: rgb(211, 211, 211); stroke-opacity: 1; stroke-width: 1px;"/><path class="ygrid crisp" transform="translate(0,184.68)" d="M154,0h471" style="stroke: rgb(211, 211, 211); stroke-opacity: 1; stroke-width: 1px;"/><path class="ygrid crisp" transform="translate(0,167.36)" d="M154,0h471" style="stroke: rgb(211, 211, 211); stroke-opacity: 1; stroke-width: 1px;"/><path class="ygrid crisp" transform="translate(0,152.36)" d="M154,0h471" style="stroke: rgb(211, 211, 211); stroke-opacity: 1; stroke-width: 1px;"/><path class="ygrid crisp" transform="translate(0,139.13)" d="M154,0h471" style="stroke: rgb(211, 211, 211); stroke-opacity: 1; stroke-width: 1px;"/><path class="ygrid crisp" transform="translate(0,127.29)" d="M154,0h471" style="stroke: rgb(211, 211, 211); stroke-opacity: 1; stroke-width: 1px;"/><path class="ygrid crisp" transform="translate(0,49.41)" d="M154,0h471" style="stroke: rgb(211, 211, 211); stroke-opacity: 1; stroke-width: 1px;"/></g></g><g class="zerolinelayer"/><g class="layer-between"><g class="shapelayer"/><g class="imagelayer"/></g><path class="xlines-below"/><path class="ylines-below"/><g class="overlines-below"/><g class="xaxislayer-below"/><g class="yaxislayer-below"/><g class="overaxes-below"/><g class="overplot"><g class="xy" transform="translate(154,7)" clip-path="url(#clipd68966xyplot)"><g class="scatterlayer mlayer"><g class="trace scatter trace1b0369" style="stroke-miterlimit: 2; opacity: 1;"><g class="fills"/><g class="errorbars"/><g class="lines"><path class="js-line" d="M27.3,100.73L443.7,142.48" style="vector-effect: none; fill: none; stroke: rgb(31, 119, 180); stroke-opacity: 1; stroke-dasharray: 3.5px, 3.5px; stroke-width: 3.5px; opacity: 1;"/></g><g class="points"><path class="point" transform="translate(27.3,100.73)" d="M3,0A3,3 0 1,1 0,-3A3,3 0 0,1 3,0Z" style="opacity: 1; stroke-width: 0px; fill: rgb(31, 119, 180); fill-opacity: 1;"/><path class="point" transform="translate(443.7,142.48)" d="M3,0A3,3 0 1,1 0,-3A3,3 0 0,1 3,0Z" style="opacity: 1; stroke-width: 0px; fill: rgb(31, 119, 180); fill-opacity: 1;"/></g><g class="text"/></g><g class="trace scatter traceea13c2" style="stroke-miterlimit: 2; opacity: 1;"><g class="fills"/><g class="errorbars"/><g class="lines"><path class="js-line" d="M27.3,196.13L443.7,250.53" style="vector-effect: none; fill: none; stroke: rgb(31, 119, 180); stroke-opacity: 1; stroke-width: 3.5px; opacity: 1;"/></g><g class="points"><path class="point" transform="translate(27.3,196.13)" d="M3,0A3,3 0 1,1 0,-3A3,3 0 0,1 3,0Z" style="opacity: 1; stroke-width: 0px; fill: rgb(31, 119, 180); fill-opacity: 1;"/><path class="point" transform="translate(443.7,250.53)" d="M3,0A3,3 0 1,1 0,-3A3,3 0 0,1 3,0Z" style="opacity: 1; stroke-width: 0px; fill: rgb(31, 119, 180); fill-opacity: 1;"/></g><g class="text"/></g><g class="trace scatter tracea06937" style="stroke-miterlimit: 2; opacity: 1;"><g class="fills"/><g class="errorbars"/><g class="lines"><path class="js-line" d="M27.3,79.51L443.7,106.79" style="vector-effect: none; fill: none; stroke: rgb(255, 127, 14); stroke-opacity: 1; stroke-width: 3.5px; opacity: 1;"/></g><g class="points"><path class="point" transform="translate(27.3,79.51)" d="M3,0A3,3 0 1,1 0,-3A3,3 0 0,1 3,0Z" style="opacity: 1; stroke-width: 0px; fill: rgb(255, 127, 14); fill-opacity: 1;"/><path class="point" transform="translate(443.7,106.79)" d="M3,0A3,3 0 1,1 0,-3A3,3 0 0,1 3,0Z" style="opacity: 1; stroke-width: 0px; fill: rgb(255, 127, 14); fill-opacity: 1;"/></g><g class="text"/></g><g class="trace scatter trace673a0a" style="stroke-miterlimit: 2; opacity: 1;"><g class="fills"/><g class="errorbars"/><g class="lines"><path class="js-line" d="M27.3,38.45L443.7,270.22" style="vector-effect: none; fill: none; stroke: rgb(44, 160, 44); stroke-opacity: 1; stroke-width: 3.5px; opacity: 1;"/></g><g class="points"><path class="point" transform="translate(27.3,38.45)" d="M3,0A3,3 0 1,1 0,-3A3,3 0 0,1 3,0Z" style="opacity: 1; stroke-width: 0px; fill: rgb(44, 160, 44); fill-opacity: 1;"/><path class="point" transform="translate(443.7,270.22)" d="M3,0A3,3 0 1,1 0,-3A3,3 0 0,1 3,0Z" style="opacity: 1; stroke-width: 0px; fill: rgb(44, 160, 44); fill-opacity: 1;"/></g><g class="text"/></g><g class="trace scatter tracee5f38b" style="stroke-miterlimit: 2; opacity: 1;"><g class="fills"/><g class="errorbars"/><g class="lines"><path class="js-line" d="M27.3,564.62L443.7,655.55" style="vector-effect: none; fill: none; stroke: rgb(214, 39, 40); stroke-opacity: 1; stroke-width: 3.5px; opacity: 1;"/></g><g class="points"><path class="point" transform="translate(27.3,564.62)" d="M3,0A3,3 0 1,1 0,-3A3,3 0 0,1 3,0Z" style="opacity: 1; stroke-width: 0px; fill: rgb(214, 39, 40); fill-opacity: 1;"/><path class="point" transform="translate(443.7,655.55)" d="M3,0A3,3 0 1,1 0,-3A3,3 0 0,1 3,0Z" style="opacity: 1; stroke-width: 0px; fill: rgb(214, 39, 40); fill-opacity: 1;"/></g><g class="text"/></g><g class="trace scatter trace97455b" style="stroke-miterlimit: 2; opacity: 1;"><g class="fills"/><g class="errorbars"><g class="errorbar" style="opacity: 1;"><path class="yerror" d="M22.3,55.81h10m-5,0V118.85m-5,0h10" style="vector-effect: none; stroke-width: 3px; stroke: rgb(148, 103, 189); stroke-opacity: 1;"/></g><g class="errorbar" style="opacity: 1;"><path class="yerror" d="M438.7,168.08h10m-5,0V314.57m-5,0h10" style="vector-effect: none; stroke-width: 3px; stroke: rgb(148, 103, 189); stroke-opacity: 1;"/></g></g><g class="lines"><path class="js-line" d="M27.3,82.96L443.7,218.97" style="vector-effect: none; fill: none; stroke: rgb(148, 103, 189); stroke-opacity: 1; stroke-width: 3.5px; opacity: 1;"/></g><g class="points"><path class="point" transform="translate(27.3,82.96)" d="M3,0A3,3 0 1,1 0,-3A3,3 0 0,1 3,0Z" style="opacity: 1; stroke-width: 0px; fill: rgb(148, 103, 189); fill-opacity: 1;"/><path class="point" transform="translate(443.7,218.97)" d="M3,0A3,3 0 1,1 0,-3A3,3 0 0,1 3,0Z" style="opacity: 1; stroke-width: 0px; fill: rgb(148, 103, 189); fill-opacity: 1;"/></g><g class="text"/></g></g></g></g><path class="xlines-above crisp" d="M152,702H627M152,6H627" style="fill: none; stroke-width: 2px; stroke: rgb(0, 0, 0); stroke-opacity: 1;"/><path class="ylines-above crisp" d="M153,7V701M626,7V701" style="fill: none; stroke-width: 2px; stroke: rgb(0, 0, 0); stroke-opacity: 1;"/><g class="overlines-above"/><g class="xaxislayer-above"><path class="xtick ticks crisp" d="M0,703v5" transform="translate(181.3,0)" style="stroke: rgb(68, 68, 68); stroke-opacity: 1; stroke-width: 1px;"/><path class="xtick ticks crisp" d="M0,703v5" transform="translate(597.7,0)" style="stroke: rgb(68, 68, 68); stroke-opacity: 1; stroke-width: 1px;"/><g class="xtick"><text text-anchor="middle" x="0" y="744" transform="translate(181.3,0)" style="font-family: 'Open Sans', verdana, arial, sans-serif; font-size: 30px; fill: rgb(42, 63, 95); fill-opacity: 1; white-space: pre; opacity: 1;">16</text></g><g class="xtick"><text text-anchor="middle" x="0" y="744" style="font-family: 'Open Sans', verdana, arial, sans-serif; font-size: 30px; fill: rgb(42, 63, 95); fill-opacity: 1; white-space: pre; opacity: 1;" transform="translate(597.7,0)">1024</text></g></g><g class="yaxislayer-above"><path class="ytick ticks crisp" d="M152,0h-5" transform="translate(0,684.77)" style="stroke: rgb(68, 68, 68); stroke-opacity: 1; stroke-width: 1px;"/><path class="ytick ticks crisp" d="M152,0h-5" transform="translate(0,669.77)" style="stroke: rgb(68, 68, 68); stroke-opacity: 1; stroke-width: 1px;"/><path class="ytick ticks crisp" d="M152,0h-5" transform="translate(0,656.53)" style="stroke: rgb(68, 68, 68); stroke-opacity: 1; stroke-width: 1px;"/><path class="ytick ticks crisp" d="M152,0h-5" transform="translate(0,644.7)" style="stroke: rgb(68, 68, 68); stroke-opacity: 1; stroke-width: 1px;"/><path class="ytick ticks crisp" d="M152,0h-5" transform="translate(0,566.82)" style="stroke: rgb(68, 68, 68); stroke-opacity: 1; stroke-width: 1px;"/><path class="ytick ticks crisp" d="M152,0h-5" transform="translate(0,521.26)" style="stroke: rgb(68, 68, 68); stroke-opacity: 1; stroke-width: 1px;"/><path class="ytick ticks crisp" d="M152,0h-5" transform="translate(0,488.94)" style="stroke: rgb(68, 68, 68); stroke-opacity: 1; stroke-width: 1px;"/><path class="ytick ticks crisp" d="M152,0h-5" transform="translate(0,463.87)" style="stroke: rgb(68, 68, 68); stroke-opacity: 1; stroke-width: 1px;"/><path class="ytick ticks crisp" d="M152,0h-5" transform="translate(0,443.39)" style="stroke: rgb(68, 68, 68); stroke-opacity: 1; stroke-width: 1px;"/><path class="ytick ticks crisp" d="M152,0h-5" transform="translate(0,426.07)" style="stroke: rgb(68, 68, 68); stroke-opacity: 1; stroke-width: 1px;"/><path class="ytick ticks crisp" d="M152,0h-5" transform="translate(0,411.06)" style="stroke: rgb(68, 68, 68); stroke-opacity: 1; stroke-width: 1px;"/><path class="ytick ticks crisp" d="M152,0h-5" transform="translate(0,397.83)" style="stroke: rgb(68, 68, 68); stroke-opacity: 1; stroke-width: 1px;"/><path class="ytick ticks crisp" d="M152,0h-5" transform="translate(0,385.99)" style="stroke: rgb(68, 68, 68); stroke-opacity: 1; stroke-width: 1px;"/><path class="ytick ticks crisp" d="M152,0h-5" transform="translate(0,308.11)" style="stroke: rgb(68, 68, 68); stroke-opacity: 1; stroke-width: 1px;"/><path class="ytick ticks crisp" d="M152,0h-5" transform="translate(0,262.56)" style="stroke: rgb(68, 68, 68); stroke-opacity: 1; stroke-width: 1px;"/><path class="ytick ticks crisp" d="M152,0h-5" transform="translate(0,230.24)" style="stroke: rgb(68, 68, 68); stroke-opacity: 1; stroke-width: 1px;"/><path class="ytick ticks crisp" d="M152,0h-5" transform="translate(0,205.17)" style="stroke: rgb(68, 68, 68); stroke-opacity: 1; stroke-width: 1px;"/><path class="ytick ticks crisp" d="M152,0h-5" transform="translate(0,184.68)" style="stroke: rgb(68, 68, 68); stroke-opacity: 1; stroke-width: 1px;"/><path class="ytick ticks crisp" d="M152,0h-5" transform="translate(0,167.36)" style="stroke: rgb(68, 68, 68); stroke-opacity: 1; stroke-width: 1px;"/><path class="ytick ticks crisp" d="M152,0h-5" transform="translate(0,152.36)" style="stroke: rgb(68, 68, 68); stroke-opacity: 1; stroke-width: 1px;"/><path class="ytick ticks crisp" d="M152,0h-5" transform="translate(0,139.13)" style="stroke: rgb(68, 68, 68); stroke-opacity: 1; stroke-width: 1px;"/><path class="ytick ticks crisp" d="M152,0h-5" transform="translate(0,127.29)" style="stroke: rgb(68, 68, 68); stroke-opacity: 1; stroke-width: 1px;"/><path class="ytick ticks crisp" d="M152,0h-5" transform="translate(0,49.41)" style="stroke: rgb(68, 68, 68); stroke-opacity: 1; stroke-width: 1px;"/><g class="ytick"><text text-anchor="end" x="133.5" y="10.5" transform="translate(0,684.77)" style="font-family: 'Open Sans', verdana, arial, sans-serif; font-size: 30px; fill: rgb(42, 63, 95); fill-opacity: 1; white-space: pre; opacity: 1;">0.7</text></g><g class="ytick"><text text-anchor="end" x="133.5" y="10.5" style="font-family: 'Open Sans', verdana, arial, sans-serif; font-size: 30px; fill: rgb(42, 63, 95); fill-opacity: 1; white-space: pre; opacity: 1;" transform="translate(0,669.77)">0.8</text></g><g class="ytick"><text text-anchor="end" x="133.5" y="10.5" style="font-family: 'Open Sans', verdana, arial, sans-serif; font-size: 30px; fill: rgb(42, 63, 95); fill-opacity: 1; white-space: pre; opacity: 1;" transform="translate(0,656.53)">0.9</text></g><g class="ytick"><text text-anchor="end" x="133.5" y="10.5" style="font-family: 'Open Sans', verdana, arial, sans-serif; font-size: 30px; fill: rgb(42, 63, 95); fill-opacity: 1; white-space: pre; opacity: 1;" transform="translate(0,644.7)">1.0</text></g><g class="ytick"><text text-anchor="end" x="141" y="10.5" style="font-family: 'Open Sans', verdana, arial, sans-serif; font-size: 30px; fill: rgb(42, 63, 95); fill-opacity: 1; white-space: pre; opacity: 1;" transform="translate(0,566.82)">2.0</text></g><g class="ytick"><text text-anchor="end" x="141" y="10.5" style="font-family: 'Open Sans', verdana, arial, sans-serif; font-size: 30px; fill: rgb(42, 63, 95); fill-opacity: 1; white-space: pre; opacity: 1;" transform="translate(0,521.26)">3.0</text></g><g class="ytick"><text text-anchor="end" x="141" y="10.5" style="font-family: 'Open Sans', verdana, arial, sans-serif; font-size: 30px; fill: rgb(42, 63, 95); fill-opacity: 1; white-space: pre; opacity: 1;" transform="translate(0,488.94)">4.0</text></g><g class="ytick"><text text-anchor="end" x="141" y="10.5" style="font-family: 'Open Sans', verdana, arial, sans-serif; font-size: 30px; fill: rgb(42, 63, 95); fill-opacity: 1; white-space: pre; opacity: 1;" transform="translate(0,463.87)">5.0</text></g><g class="ytick"><text text-anchor="end" x="141" y="10.5" style="font-family: 'Open Sans', verdana, arial, sans-serif; font-size: 30px; fill: rgb(42, 63, 95); fill-opacity: 1; white-space: pre; opacity: 1;" transform="translate(0,443.39)">6.0</text></g><g class="ytick"><text text-anchor="end" x="141" y="10.5" style="font-family: 'Open Sans', verdana, arial, sans-serif; font-size: 30px; fill: rgb(42, 63, 95); fill-opacity: 1; white-space: pre; opacity: 1;" transform="translate(0,426.07)">7.0</text></g><g class="ytick"><text text-anchor="end" x="141" y="10.5" style="font-family: 'Open Sans', verdana, arial, sans-serif; font-size: 30px; fill: rgb(42, 63, 95); fill-opacity: 1; white-space: pre; opacity: 1;" transform="translate(0,411.06)">8.0</text></g><g class="ytick"><text text-anchor="end" x="141" y="10.5" style="font-family: 'Open Sans', verdana, arial, sans-serif; font-size: 30px; fill: rgb(42, 63, 95); fill-opacity: 1; white-space: pre; opacity: 1;" transform="translate(0,397.83)">9.0</text></g><g class="ytick"><text text-anchor="end" x="133.5" y="10.5" style="font-family: 'Open Sans', verdana, arial, sans-serif; font-size: 30px; fill: rgb(42, 63, 95); fill-opacity: 1; white-space: pre; opacity: 1;" transform="translate(0,385.99)">10.0</text></g><g class="ytick"><text text-anchor="end" x="141" y="10.5" style="font-family: 'Open Sans', verdana, arial, sans-serif; font-size: 30px; fill: rgb(42, 63, 95); fill-opacity: 1; white-space: pre; opacity: 1;" transform="translate(0,308.11)">20.0</text></g><g class="ytick"><text text-anchor="end" x="141" y="10.5" style="font-family: 'Open Sans', verdana, arial, sans-serif; font-size: 30px; fill: rgb(42, 63, 95); fill-opacity: 1; white-space: pre; opacity: 1;" transform="translate(0,262.56)">30.0</text></g><g class="ytick"><text text-anchor="end" x="141" y="10.5" style="font-family: 'Open Sans', verdana, arial, sans-serif; font-size: 30px; fill: rgb(42, 63, 95); fill-opacity: 1; white-space: pre; opacity: 1;" transform="translate(0,230.24)">40.0</text></g><g class="ytick"><text text-anchor="end" x="141" y="10.5" style="font-family: 'Open Sans', verdana, arial, sans-serif; font-size: 30px; fill: rgb(42, 63, 95); fill-opacity: 1; white-space: pre; opacity: 1;" transform="translate(0,205.17)">50.0</text></g><g class="ytick"><text text-anchor="end" x="141" y="10.5" style="font-family: 'Open Sans', verdana, arial, sans-serif; font-size: 30px; fill: rgb(42, 63, 95); fill-opacity: 1; white-space: pre; opacity: 1;" transform="translate(0,184.68)">60.0</text></g><g class="ytick"><text text-anchor="end" x="141" y="10.5" style="font-family: 'Open Sans', verdana, arial, sans-serif; font-size: 30px; fill: rgb(42, 63, 95); fill-opacity: 1; white-space: pre; opacity: 1;" transform="translate(0,167.36)">70.0</text></g><g class="ytick"><text text-anchor="end" x="141" y="10.5" style="font-family: 'Open Sans', verdana, arial, sans-serif; font-size: 30px; fill: rgb(42, 63, 95); fill-opacity: 1; white-space: pre; opacity: 1;" transform="translate(0,152.36)">80.0</text></g><g class="ytick"><text text-anchor="end" x="141" y="10.5" style="font-family: 'Open Sans', verdana, arial, sans-serif; font-size: 30px; fill: rgb(42, 63, 95); fill-opacity: 1; white-space: pre; opacity: 1;" transform="translate(0,139.13)">90.0</text></g><g class="ytick"><text text-anchor="end" x="133.5" y="10.5" style="font-family: 'Open Sans', verdana, arial, sans-serif; font-size: 30px; fill: rgb(42, 63, 95); fill-opacity: 1; white-space: pre; opacity: 1;" transform="translate(0,127.29)">100.0</text></g><g class="ytick"><text text-anchor="end" x="141" y="10.5" style="font-family: 'Open Sans', verdana, arial, sans-serif; font-size: 30px; fill: rgb(42, 63, 95); fill-opacity: 1; white-space: pre; opacity: 1;" transform="translate(0,49.41)">200.0</text></g></g><g class="overaxes-above"/></g><g class="subplot xy2"><rect class="bg" x="154" y="7" width="471" height="694" style="fill: rgb(255, 255, 255); fill-opacity: 1; stroke-width: 0;"/><g class="layer-subplot"><g class="shapelayer"/><g class="imagelayer"/></g><g class="minor-gridlayer"><g class="x"/><g class="y2"/></g><g class="gridlayer"><g class="x"><path class="xgrid crisp" transform="translate(181.3,0)" d="M0,7v694" style="stroke: rgb(211, 211, 211); stroke-opacity: 1; stroke-width: 1px;"/><path class="xgrid crisp" transform="translate(597.7,0)" d="M0,7v694" style="stroke: rgb(211, 211, 211); stroke-opacity: 1; stroke-width: 1px;"/></g><g class="y2"/></g><g class="zerolinelayer"/><g class="layer-between"><g class="shapelayer"/><g class="imagelayer"/></g><path class="xlines-below"/><path class="ylines-below"/><g class="overlines-below"/><g class="xaxislayer-below"/><g class="yaxislayer-below"/><g class="overaxes-below"/><g class="overplot"><g class="xy2" transform="translate(154,7)" clip-path="url(#clipd68966xy2plot)"><g class="scatterlayer mlayer"><g class="trace scatter tracec6eae8" style="stroke-miterlimit: 2; opacity: 1;"><g class="fills"/><g class="errorbars"/><g class="lines"><path class="js-line" d="M27.3,178.48L443.7,272.36" style="vector-effect: none; fill: none; stroke: rgb(31, 119, 180); stroke-opacity: 1; stroke-dasharray: 3.5px, 3.5px; stroke-width: 3.5px; opacity: 1;"/></g><g class="points"><path class="point" transform="translate(27.3,178.48)" d="M3,0A3,3 0 1,1 0,-3A3,3 0 0,1 3,0Z" style="opacity: 1; stroke-width: 0px; fill: rgb(31, 119, 180); fill-opacity: 1;"/><path class="point" transform="translate(443.7,272.36)" d="M3,0A3,3 0 1,1 0,-3A3,3 0 0,1 3,0Z" style="opacity: 1; stroke-width: 0px; fill: rgb(31, 119, 180); fill-opacity: 1;"/></g><g class="text"/></g><g class="trace scatter tracedec332" style="stroke-miterlimit: 2; opacity: 1;"><g class="fills"/><g class="errorbars"/><g class="lines"><path class="js-line" d="M27.3,393L443.7,515.32" style="vector-effect: none; fill: none; stroke: rgb(31, 119, 180); stroke-opacity: 1; stroke-width: 3.5px; opacity: 1;"/></g><g class="points"><path class="point" transform="translate(27.3,393)" d="M3,0A3,3 0 1,1 0,-3A3,3 0 0,1 3,0Z" style="opacity: 1; stroke-width: 0px; fill: rgb(31, 119, 180); fill-opacity: 1;"/><path class="point" transform="translate(443.7,515.32)" d="M3,0A3,3 0 1,1 0,-3A3,3 0 0,1 3,0Z" style="opacity: 1; stroke-width: 0px; fill: rgb(31, 119, 180); fill-opacity: 1;"/></g><g class="text"/></g><g class="trace scatter trace3e8a44" style="stroke-miterlimit: 2; opacity: 1;"><g class="fills"/><g class="errorbars"/><g class="lines"><path class="js-line" d="M27.3,130.77L443.7,192.11" style="vector-effect: none; fill: none; stroke: rgb(255, 127, 14); stroke-opacity: 1; stroke-width: 3.5px; opacity: 1;"/></g><g class="points"><path class="point" transform="translate(27.3,130.77)" d="M3,0A3,3 0 1,1 0,-3A3,3 0 0,1 3,0Z" style="opacity: 1; stroke-width: 0px; fill: rgb(255, 127, 14); fill-opacity: 1;"/><path class="point" transform="translate(443.7,192.11)" d="M3,0A3,3 0 1,1 0,-3A3,3 0 0,1 3,0Z" style="opacity: 1; stroke-width: 0px; fill: rgb(255, 127, 14); fill-opacity: 1;"/></g><g class="text"/></g><g class="trace scatter trace455e37" style="stroke-miterlimit: 2; opacity: 1;"><g class="fills"/><g class="errorbars"/><g class="lines"><path class="js-line" d="M27.3,38.45L443.7,559.58" style="vector-effect: none; fill: none; stroke: rgb(44, 160, 44); stroke-opacity: 1; stroke-width: 3.5px; opacity: 1;"/></g><g class="points"><path class="point" transform="translate(27.3,38.45)" d="M3,0A3,3 0 1,1 0,-3A3,3 0 0,1 3,0Z" style="opacity: 1; stroke-width: 0px; fill: rgb(44, 160, 44); fill-opacity: 1;"/><path class="point" transform="translate(443.7,559.58)" d="M3,0A3,3 0 1,1 0,-3A3,3 0 0,1 3,0Z" style="opacity: 1; stroke-width: 0px; fill: rgb(44, 160, 44); fill-opacity: 1;"/></g><g class="text"/></g><g class="trace scatter trace74692b" style="stroke-miterlimit: 2; opacity: 1;"><g class="fills"/><g class="errorbars"/><g class="lines"><path class="js-line" d="M27.3,86.04L443.7,290.5" style="vector-effect: none; fill: none; stroke: rgb(214, 39, 40); stroke-opacity: 1; stroke-width: 3.5px; opacity: 1;"/></g><g class="points"><path class="point" transform="translate(27.3,86.04)" d="M3,0A3,3 0 1,1 0,-3A3,3 0 0,1 3,0Z" style="opacity: 1; stroke-width: 0px; fill: rgb(214, 39, 40); fill-opacity: 1;"/><path class="point" transform="translate(443.7,290.5)" d="M3,0A3,3 0 1,1 0,-3A3,3 0 0,1 3,0Z" style="opacity: 1; stroke-width: 0px; fill: rgb(214, 39, 40); fill-opacity: 1;"/></g><g class="text"/></g><g class="trace scatter tracef3c22a" style="stroke-miterlimit: 2; opacity: 1;"><g class="fills"/><g class="errorbars"><g class="errorbar" style="opacity: 1;"><path class="yerror" d="M22.3,77.48h10m-5,0V219.24m-5,0h10" style="vector-effect: none; stroke-width: 3px; stroke: rgb(148, 103, 189); stroke-opacity: 1;"/></g><g class="errorbar" style="opacity: 1;"><path class="yerror" d="M438.7,329.92h10m-5,0V659.3m-5,0h10" style="vector-effect: none; stroke-width: 3px; stroke: rgb(148, 103, 189); stroke-opacity: 1;"/></g></g><g class="lines"><path class="js-line" d="M27.3,138.54L443.7,444.35" style="vector-effect: none; fill: none; stroke: rgb(148, 103, 189); stroke-opacity: 1; stroke-width: 3.5px; opacity: 1;"/></g><g class="points"><path class="point" transform="translate(27.3,138.54)" d="M3,0A3,3 0 1,1 0,-3A3,3 0 0,1 3,0Z" style="opacity: 1; stroke-width: 0px; fill: rgb(148, 103, 189); fill-opacity: 1;"/><path class="point" transform="translate(443.7,444.35)" d="M3,0A3,3 0 1,1 0,-3A3,3 0 0,1 3,0Z" style="opacity: 1; stroke-width: 0px; fill: rgb(148, 103, 189); fill-opacity: 1;"/></g><g class="text"/></g></g></g></g><path class="xlines-above crisp" d="M0,0" style="fill: none;"/><path class="ylines-above crisp" d="M0,0" style="fill: none;"/><g class="overlines-above"/><g class="xaxislayer-above"/><g class="yaxislayer-above"/><g class="overaxes-above"/></g></g><g class="polarlayer"/><g class="smithlayer"/><g class="ternarylayer"/><g class="geolayer"/><g class="funnelarealayer"/><g class="pielayer"/><g class="iciclelayer"/><g class="treemaplayer"/><g class="sunburstlayer"/><g class="glimages"/><defs id="topdefs-d68966"><g class="clips"/><clipPath id="legendd68966"><rect width="170" height="514" x="0" y="0"/></clipPath></defs><g class="layer-above"><g class="imagelayer"/><g class="shapelayer"/></g><g class="infolayer"><g class="legend" pointer-events="all" transform="translate(625,7)"><rect class="bg" shape-rendering="crispEdges" width="170" height="514" x="0" y="0" style="stroke: rgb(68, 68, 68); stroke-opacity: 1; fill: rgb(0, 0, 0); fill-opacity: 0; stroke-width: 0px;"/><g class="scrollbox" transform="" clip-path="url(#legendd68966)"><g class="groups"><g class="traces" transform="translate(0,26)" style="opacity: 1;"><text class="legendtext" text-anchor="start" x="40" y="11.7" style="font-family: Arial, bold; font-size: 30px; fill: rgb(0, 0, 0); fill-opacity: 1; white-space: pre;">ILP (p=0)</text><g class="layers" style="opacity: 1;"><g class="legendfill"/><g class="legendlines"><path class="js-line" d="M5,0h30" style="fill: none; stroke: rgb(31, 119, 180); stroke-opacity: 1; stroke-dasharray: 3.5px, 3.5px; stroke-width: 3.5px;"/></g><g class="legendsymbols"><g class="legendpoints"><path class="scatterpts" transform="translate(20,0)" d="M3,0A3,3 0 1,1 0,-3A3,3 0 0,1 3,0Z" style="opacity: 1; stroke-width: 0px; fill: rgb(31, 119, 180); fill-opacity: 1;"/></g></g></g><rect class="legendtoggle" x="0" y="-21" width="164.234375" height="42" style="fill: rgb(0, 0, 0); fill-opacity: 0;"/></g><g class="traces" transform="translate(0,68)" style="opacity: 1;"><text class="legendtext" text-anchor="start" x="40" y="11.7" style="font-family: Arial, bold; font-size: 30px; fill: rgb(0, 0, 0); fill-opacity: 1; white-space: pre;">ILP (p=0)</text><g class="layers" style="opacity: 1;"><g class="legendfill"/><g class="legendlines"><path class="js-line" d="M5,0h30" style="fill: none; stroke: rgb(31, 119, 180); stroke-opacity: 1; stroke-dasharray: 3.5px, 3.5px; stroke-width: 3.5px;"/></g><g class="legendsymbols"><g class="legendpoints"><path class="scatterpts" transform="translate(20,0)" d="M3,0A3,3 0 1,1 0,-3A3,3 0 0,1 3,0Z" style="opacity: 1; stroke-width: 0px; fill: rgb(31, 119, 180); fill-opacity: 1;"/></g></g></g><rect class="legendtoggle" x="0" y="-21" width="164.234375" height="42" style="fill: rgb(0, 0, 0); fill-opacity: 0;"/></g><g class="traces" transform="translate(0,110)" style="opacity: 1;"><text class="legendtext" text-anchor="start" x="40" y="11.7" style="font-family: Arial, bold; font-size: 30px; fill: rgb(0, 0, 0); fill-opacity: 1; white-space: pre;">ILP (p=1)</text><g class="layers" style="opacity: 1;"><g class="legendfill"/><g class="legendlines"><path class="js-line" d="M5,0h30" style="fill: none; stroke: rgb(31, 119, 180); stroke-opacity: 1; stroke-width: 3.5px;"/></g><g class="legendsymbols"><g class="legendpoints"><path class="scatterpts" transform="translate(20,0)" d="M3,0A3,3 0 1,1 0,-3A3,3 0 0,1 3,0Z" style="opacity: 1; stroke-width: 0px; fill: rgb(31, 119, 180); fill-opacity: 1;"/></g></g></g><rect class="legendtoggle" x="0" y="-21" width="164.234375" height="42" style="fill: rgb(0, 0, 0); fill-opacity: 0;"/></g><g class="traces" transform="translate(0,152)" style="opacity: 1;"><text class="legendtext" text-anchor="start" x="40" y="11.7" style="font-family: Arial, bold; font-size: 30px; fill: rgb(0, 0, 0); fill-opacity: 1; white-space: pre;">ILP (p=1)</text><g class="layers" style="opacity: 1;"><g class="legendfill"/><g class="legendlines"><path class="js-line" d="M5,0h30" style="fill: none; stroke: rgb(31, 119, 180); stroke-opacity: 1; stroke-width: 3.5px;"/></g><g class="legendsymbols"><g class="legendpoints"><path class="scatterpts" transform="translate(20,0)" d="M3,0A3,3 0 1,1 0,-3A3,3 0 0,1 3,0Z" style="opacity: 1; stroke-width: 0px; fill: rgb(31, 119, 180); fill-opacity: 1;"/></g></g></g><rect class="legendtoggle" x="0" y="-21" width="164.234375" height="42" style="fill: rgb(0, 0, 0); fill-opacity: 0;"/></g><g class="traces" transform="translate(0,194)" style="opacity: 1;"><text class="legendtext" text-anchor="start" x="40" y="11.7" style="font-family: Arial, bold; font-size: 30px; fill: rgb(0, 0, 0); fill-opacity: 1; white-space: pre;">SML</text><g class="layers" style="opacity: 1;"><g class="legendfill"/><g class="legendlines"><path class="js-line" d="M5,0h30" style="fill: none; stroke: rgb(255, 127, 14); stroke-opacity: 1; stroke-width: 3.5px;"/></g><g class="legendsymbols"><g class="legendpoints"><path class="scatterpts" transform="translate(20,0)" d="M3,0A3,3 0 1,1 0,-3A3,3 0 0,1 3,0Z" style="opacity: 1; stroke-width: 0px; fill: rgb(255, 127, 14); fill-opacity: 1;"/></g></g></g><rect class="legendtoggle" x="0" y="-21" width="164.234375" height="42" style="fill: rgb(0, 0, 0); fill-opacity: 0;"/></g><g class="traces" transform="translate(0,236)" style="opacity: 1;"><text class="legendtext" text-anchor="start" x="40" y="11.7" style="font-family: Arial, bold; font-size: 30px; fill: rgb(0, 0, 0); fill-opacity: 1; white-space: pre;">SML</text><g class="layers" style="opacity: 1;"><g class="legendfill"/><g class="legendlines"><path class="js-line" d="M5,0h30" style="fill: none; stroke: rgb(255, 127, 14); stroke-opacity: 1; stroke-width: 3.5px;"/></g><g class="legendsymbols"><g class="legendpoints"><path class="scatterpts" transform="translate(20,0)" d="M3,0A3,3 0 1,1 0,-3A3,3 0 0,1 3,0Z" style="opacity: 1; stroke-width: 0px; fill: rgb(255, 127, 14); fill-opacity: 1;"/></g></g></g><rect class="legendtoggle" x="0" y="-21" width="164.234375" height="42" style="fill: rgb(0, 0, 0); fill-opacity: 0;"/></g><g class="traces" transform="translate(0,278)" style="opacity: 1;"><text class="legendtext" text-anchor="start" x="40" y="11.7" style="font-family: Arial, bold; font-size: 30px; fill: rgb(0, 0, 0); fill-opacity: 1; white-space: pre;">FPS</text><g class="layers" style="opacity: 1;"><g class="legendfill"/><g class="legendlines"><path class="js-line" d="M5,0h30" style="fill: none; stroke: rgb(44, 160, 44); stroke-opacity: 1; stroke-width: 3.5px;"/></g><g class="legendsymbols"><g class="legendpoints"><path class="scatterpts" transform="translate(20,0)" d="M3,0A3,3 0 1,1 0,-3A3,3 0 0,1 3,0Z" style="opacity: 1; stroke-width: 0px; fill: rgb(44, 160, 44); fill-opacity: 1;"/></g></g></g><rect class="legendtoggle" x="0" y="-21" width="164.234375" height="42" style="fill: rgb(0, 0, 0); fill-opacity: 0;"/></g><g class="traces" transform="translate(0,320)" style="opacity: 1;"><text class="legendtext" text-anchor="start" x="40" y="11.7" style="font-family: Arial, bold; font-size: 30px; fill: rgb(0, 0, 0); fill-opacity: 1; white-space: pre;">FPS</text><g class="layers" style="opacity: 1;"><g class="legendfill"/><g class="legendlines"><path class="js-line" d="M5,0h30" style="fill: none; stroke: rgb(44, 160, 44); stroke-opacity: 1; stroke-width: 3.5px;"/></g><g class="legendsymbols"><g class="legendpoints"><path class="scatterpts" transform="translate(20,0)" d="M3,0A3,3 0 1,1 0,-3A3,3 0 0,1 3,0Z" style="opacity: 1; stroke-width: 0px; fill: rgb(44, 160, 44); fill-opacity: 1;"/></g></g></g><rect class="legendtoggle" x="0" y="-21" width="164.234375" height="42" style="fill: rgb(0, 0, 0); fill-opacity: 0;"/></g><g class="traces" transform="translate(0,362)" style="opacity: 1;"><text class="legendtext" text-anchor="start" x="40" y="11.7" style="font-family: Arial, bold; font-size: 30px; fill: rgb(0, 0, 0); fill-opacity: 1; white-space: pre;">CUR</text><g class="layers" style="opacity: 1;"><g class="legendfill"/><g class="legendlines"><path class="js-line" d="M5,0h30" style="fill: none; stroke: rgb(214, 39, 40); stroke-opacity: 1; stroke-width: 3.5px;"/></g><g class="legendsymbols"><g class="legendpoints"><path class="scatterpts" transform="translate(20,0)" d="M3,0A3,3 0 1,1 0,-3A3,3 0 0,1 3,0Z" style="opacity: 1; stroke-width: 0px; fill: rgb(214, 39, 40); fill-opacity: 1;"/></g></g></g><rect class="legendtoggle" x="0" y="-21" width="164.234375" height="42" style="fill: rgb(0, 0, 0); fill-opacity: 0;"/></g><g class="traces" transform="translate(0,404)" style="opacity: 1;"><text class="legendtext" text-anchor="start" x="40" y="11.7" style="font-family: Arial, bold; font-size: 30px; fill: rgb(0, 0, 0); fill-opacity: 1; white-space: pre;">CUR</text><g class="layers" style="opacity: 1;"><g class="legendfill"/><g class="legendlines"><path class="js-line" d="M5,0h30" style="fill: none; stroke: rgb(214, 39, 40); stroke-opacity: 1; stroke-width: 3.5px;"/></g><g class="legendsymbols"><g class="legendpoints"><path class="scatterpts" transform="translate(20,0)" d="M3,0A3,3 0 1,1 0,-3A3,3 0 0,1 3,0Z" style="opacity: 1; stroke-width: 0px; fill: rgb(214, 39, 40); fill-opacity: 1;"/></g></g></g><rect class="legendtoggle" x="0" y="-21" width="164.234375" height="42" style="fill: rgb(0, 0, 0); fill-opacity: 0;"/></g><g class="traces" transform="translate(0,446)" style="opacity: 1;"><text class="legendtext" text-anchor="start" x="40" y="11.7" style="font-family: Arial, bold; font-size: 30px; fill: rgb(0, 0, 0); fill-opacity: 1; white-space: pre;">Random</text><g class="layers" style="opacity: 1;"><g class="legendfill"/><g class="legendlines"><path class="js-line" d="M5,0h30" style="fill: none; stroke: rgb(148, 103, 189); stroke-opacity: 1; stroke-width: 3.5px;"/></g><g class="legendsymbols"><g class="legendpoints"><path class="scatterpts" transform="translate(20,0)" d="M3,0A3,3 0 1,1 0,-3A3,3 0 0,1 3,0Z" style="opacity: 1; stroke-width: 0px; fill: rgb(148, 103, 189); fill-opacity: 1;"/></g></g></g><rect class="legendtoggle" x="0" y="-21" width="164.234375" height="42" style="fill: rgb(0, 0, 0); fill-opacity: 0;"/></g><g class="traces" transform="translate(0,488)" style="opacity: 1;"><text class="legendtext" text-anchor="start" x="40" y="11.7" style="font-family: Arial, bold; font-size: 30px; fill: rgb(0, 0, 0); fill-opacity: 1; white-space: pre;">Random</text><g class="layers" style="opacity: 1;"><g class="legendfill"/><g class="legendlines"><path class="js-line" d="M5,0h30" style="fill: none; stroke: rgb(148, 103, 189); stroke-opacity: 1; stroke-width: 3.5px;"/></g><g class="legendsymbols"><g class="legendpoints"><path class="scatterpts" transform="translate(20,0)" d="M3,0A3,3 0 1,1 0,-3A3,3 0 0,1 3,0Z" style="opacity: 1; stroke-width: 0px; fill: rgb(148, 103, 189); fill-opacity: 1;"/></g></g></g><rect class="legendtoggle" x="0" y="-21" width="164.234375" height="42" style="fill: rgb(0, 0, 0); fill-opacity: 0;"/></g></g></g><rect class="scrollbar" rx="20" ry="3" width="0" height="0" x="0" y="0" style="fill: rgb(128, 139, 164); fill-opacity: 1;"/></g><g class="g-gtitle"/><g class="g-xtitle" transform="translate(0,-1.6000000000000227)"><text class="xtitle" x="389.5" y="793.6" text-anchor="middle" style="opacity: 1; font-family: Arial, bold; font-size: 38px; fill: rgb(0, 0, 0); fill-opacity: 1; white-space: pre;"><tspan style="font-style:italic">N</tspan></text></g><g class="g-ytitle" transform="translate(14.4091796875,0)"><text class="ytitle" transform="rotate(-90,19.59062499999999,354)" x="19.59062499999999" y="354" text-anchor="middle" style="opacity: 1; font-family: Arial, bold; font-size: 38px; fill: rgb(0, 0, 0); fill-opacity: 1; white-space: pre;">MAE [kcal/mol]</text></g></g></svg>