<svg class="main-svg" xmlns="http://www.w3.org/2000/svg" xmlns:xlink="http://www.w3.org/1999/xlink" width="600" height="800" style="" viewBox="0 0 600 800"><rect x="0" y="0" width="600" height="800" style="fill: rgb(255, 255, 255); fill-opacity: 1;"/><defs id="defs-23b7c5"><g class="clips"><clipPath id="clip23b7c5xyplot" class="plotclip"><rect width="306" height="650"/></clipPath><clipPath class="axesclip" id="clip23b7c5x"><rect x="119" y="0" width="306" height="800"/></clipPath><clipPath class="axesclip" id="clip23b7c5y"><rect x="0" y="7" width="600" height="650"/></clipPath><clipPath class="axesclip" id="clip23b7c5xy"><rect x="119" y="7" width="306" height="650"/></clipPath></g><g class="gradients"/><g class="patterns"/></defs><g class="bglayer"/><g class="layer-below"><g class="imagelayer"/><g class="shapelayer"/></g><g class="cartesianlayer"><g class="subplot xy"><g class="layer-subplot"><g class="shapelayer"/><g class="imagelayer"/></g><g class="minor-gridlayer"><g class="x"/><g class="y"/></g><g class="gridlayer"><g class="x"><path class="xgrid crisp" transform="translate(138.05,0)" d="M0,7v650" style="stroke: rgb(211, 211, 211); stroke-opacity: 1; stroke-width: 1px;"/><path class="xgrid crisp" transform="translate(182.7,0)" d="M0,7v650" style="stroke: rgb(211, 211, 211); stroke-opacity: 1; stroke-width: 1px;"/><path class="xgrid crisp" transform="translate(227.35,0)" d="M0,7v650" style="stroke: rgb(211, 211, 211); stroke-opacity: 1; stroke-width: 1px;"/><path class="xgrid crisp" transform="translate(272,0)" d="M0,7v650" style="stroke: rgb(211, 211, 211); stroke-opacity: 1; stroke-width: 1px;"/><path class="xgrid crisp" transform="translate(316.65,0)" d="M0,7v650" style="stroke: rgb(211, 211, 211); stroke-opacity: 1; stroke-width: 1px;"/><path class="xgrid crisp" transform="translate(361.3,0)" d="M0,7v650" style="stroke: rgb(211, 211, 211); stroke-opacity: 1; stroke-width: 1px;"/><path class="xgrid crisp" transform="translate(405.95,0)" d="M0,7v650" style="stroke: rgb(211, 211, 211); stroke-opacity: 1; stroke-width: 1px;"/></g><g class="y"><path class="ygrid crisp" transform="translate(0,631.26)" d="M119,0h306" style="stroke: rgb(211, 211, 211); stroke-opacity: 1; stroke-width: 1px;"/><path class="ygrid crisp" transform="translate(0,597.97)" d="M119,0h306" style="stroke: rgb(211, 211, 211); stroke-opacity: 1; stroke-width: 1px;"/><path class="ygrid crisp" transform="translate(0,570.76)" d="M119,0h306" style="stroke: rgb(211, 211, 211); stroke-opacity: 1; stroke-width: 1px;"/><path class="ygrid crisp" transform="translate(0,547.76)" d="M119,0h306" style="stroke: rgb(211, 211, 211); stroke-opacity: 1; stroke-width: 1px;"/><path class="ygrid crisp" transform="translate(0,527.84)" d="M119,0h306" style="stroke: rgb(211, 211, 211); stroke-opacity: 1; stroke-width: 1px;"/><path class="ygrid crisp" transform="translate(0,510.26)" d="M119,0h306" style="stroke: rgb(211, 211, 211); stroke-opacity: 1; stroke-width: 1px;"/><path class="ygrid crisp" transform="translate(0,494.54)" d="M119,0h306" style="stroke: rgb(211, 211, 211); stroke-opacity: 1; stroke-width: 1px;"/><path class="ygrid crisp" transform="translate(0,391.11)" d="M119,0h306" style="stroke: rgb(211, 211, 211); stroke-opacity: 1; stroke-width: 1px;"/><path class="ygrid crisp" transform="translate(0,330.61)" d="M119,0h306" style="stroke: rgb(211, 211, 211); stroke-opacity: 1; stroke-width: 1px;"/><path class="ygrid crisp" transform="translate(0,287.69)" d="M119,0h306" style="stroke: rgb(211, 211, 211); stroke-opacity: 1; stroke-width: 1px;"/><path class="ygrid crisp" transform="translate(0,254.39)" d="M119,0h306" style="stroke: rgb(211, 211, 211); stroke-opacity: 1; stroke-width: 1px;"/><path class="ygrid crisp" transform="translate(0,227.19)" d="M119,0h306" style="stroke: rgb(211, 211, 211); stroke-opacity: 1; stroke-width: 1px;"/><path class="ygrid crisp" transform="translate(0,204.18)" d="M119,0h306" style="stroke: rgb(211, 211, 211); stroke-opacity: 1; stroke-width: 1px;"/><path class="ygrid crisp" transform="translate(0,184.26)" d="M119,0h306" style="stroke: rgb(211, 211, 211); stroke-opacity: 1; stroke-width: 1px;"/><path class="ygrid crisp" transform="translate(0,166.69)" d="M119,0h306" style="stroke: rgb(211, 211, 211); stroke-opacity: 1; stroke-width: 1px;"/><path class="ygrid crisp" transform="translate(0,150.96)" d="M119,0h306" style="stroke: rgb(211, 211, 211); stroke-opacity: 1; stroke-width: 1px;"/><path class="ygrid crisp" transform="translate(0,47.54)" d="M119,0h306" style="stroke: rgb(211, 211, 211); stroke-opacity: 1; stroke-width: 1px;"/></g></g><g class="zerolinelayer"/><path class="xlines-below"/><path class="ylines-below"/><g class="overlines-below"/><g class="xaxislayer-below"/><g class="yaxislayer-below"/><g class="overaxes-below"/><g class="plot" transform="translate(119,7)" clip-path="url(#clip23b7c5xyplot)"><g class="scatterlayer mlayer"><g class="trace scatter traceb28b2e" style="stroke-miterlimit: 2; opacity: 1;"><g class="fills"/><g class="errorbars"/><g class="lines"><path class="js-line" d="M19.05,251.67L63.7,307.04L108.35,263.98L153,284.94L197.65,371.55L242.3,386.95L286.95,290.79" style="vector-effect: none; fill: none; stroke: rgb(31, 119, 180); stroke-opacity: 1; stroke-dasharray: 3.5px, 3.5px; stroke-width: 3.5px; opacity: 1;"/></g><g class="points"><path class="point" transform="translate(19.05,251.67)" d="M3,0A3,3 0 1,1 0,-3A3,3 0 0,1 3,0Z" style="opacity: 1; stroke-width: 0px; fill: rgb(31, 119, 180); fill-opacity: 1;"/><path class="point" transform="translate(63.7,307.04)" d="M3,0A3,3 0 1,1 0,-3A3,3 0 0,1 3,0Z" style="opacity: 1; stroke-width: 0px; fill: rgb(31, 119, 180); fill-opacity: 1;"/><path class="point" transform="translate(108.35,263.98)" d="M3,0A3,3 0 1,1 0,-3A3,3 0 0,1 3,0Z" style="opacity: 1; stroke-width: 0px; fill: rgb(31, 119, 180); fill-opacity: 1;"/><path class="point" transform="translate(153,284.94)" d="M3,0A3,3 0 1,1 0,-3A3,3 0 0,1 3,0Z" style="opacity: 1; stroke-width: 0px; fill: rgb(31, 119, 180); fill-opacity: 1;"/><path class="point" transform="translate(197.65,371.55)" d="M3,0A3,3 0 1,1 0,-3A3,3 0 0,1 3,0Z" style="opacity: 1; stroke-width: 0px; fill: rgb(31, 119, 180); fill-opacity: 1;"/><path class="point" transform="translate(242.3,386.95)" d="M3,0A3,3 0 1,1 0,-3A3,3 0 0,1 3,0Z" style="opacity: 1; stroke-width: 0px; fill: rgb(31, 119, 180); fill-opacity: 1;"/><path class="point" transform="translate(286.95,290.79)" d="M3,0A3,3 0 1,1 0,-3A3,3 0 0,1 3,0Z" style="opacity: 1; stroke-width: 0px; fill: rgb(31, 119, 180); fill-opacity: 1;"/></g><g class="text"/></g><g class="trace scatter tracedf497c" style="stroke-miterlimit: 2; opacity: 1;"><g class="fills"/><g class="errorbars"/><g class="lines"><path class="js-line" d="M19.05,457.32L63.7,400.01L108.35,369.44L153,255.5L197.65,600.66L242.3,318.8L286.95,429.2" style="vector-effect: none; fill: none; stroke: rgb(31, 119, 180); stroke-opacity: 1; stroke-width: 3.5px; opacity: 1;"/></g><g class="points"><path class="point" transform="translate(19.05,457.32)" d="M3,0A3,3 0 1,1 0,-3A3,3 0 0,1 3,0Z" style="opacity: 1; stroke-width: 0px; fill: rgb(31, 119, 180); fill-opacity: 1;"/><path class="point" transform="translate(63.7,400.01)" d="M3,0A3,3 0 1,1 0,-3A3,3 0 0,1 3,0Z" style="opacity: 1; stroke-width: 0px; fill: rgb(31, 119, 180); fill-opacity: 1;"/><path class="point" transform="translate(108.35,369.44)" d="M3,0A3,3 0 1,1 0,-3A3,3 0 0,1 3,0Z" style="opacity: 1; stroke-width: 0px; fill: rgb(31, 119, 180); fill-opacity: 1;"/><path class="point" transform="translate(153,255.5)" d="M3,0A3,3 0 1,1 0,-3A3,3 0 0,1 3,0Z" style="opacity: 1; stroke-width: 0px; fill: rgb(31, 119, 180); fill-opacity: 1;"/><path class="point" transform="translate(197.65,600.66)" d="M3,0A3,3 0 1,1 0,-3A3,3 0 0,1 3,0Z" style="opacity: 1; stroke-width: 0px; fill: rgb(31, 119, 180); fill-opacity: 1;"/><path class="point" transform="translate(242.3,318.8)" d="M3,0A3,3 0 1,1 0,-3A3,3 0 0,1 3,0Z" style="opacity: 1; stroke-width: 0px; fill: rgb(31, 119, 180); fill-opacity: 1;"/><path class="point" transform="translate(286.95,429.2)" d="M3,0A3,3 0 1,1 0,-3A3,3 0 0,1 3,0Z" style="opacity: 1; stroke-width: 0px; fill: rgb(31, 119, 180); fill-opacity: 1;"/></g><g class="text"/></g><g class="trace scatter traced49935" style="stroke-miterlimit: 2; opacity: 1;"><g class="fills"/><g class="errorbars"/><g class="lines"><path class="js-line" d="M19.05,190.69L63.7,197.4L108.35,166.61L153,590.48L197.65,536.73L242.3,566.44L286.95,431.66" style="vector-effect: none; fill: none; stroke: rgb(255, 127, 14); stroke-opacity: 1; stroke-width: 3.5px; opacity: 1;"/></g><g class="points"><path class="point" transform="translate(19.05,190.69)" d="M3,0A3,3 0 1,1 0,-3A3,3 0 0,1 3,0Z" style="opacity: 1; stroke-width: 0px; fill: rgb(255, 127, 14); fill-opacity: 1;"/><path class="point" transform="translate(63.7,197.4)" d="M3,0A3,3 0 1,1 0,-3A3,3 0 0,1 3,0Z" style="opacity: 1; stroke-width: 0px; fill: rgb(255, 127, 14); fill-opacity: 1;"/><path class="point" transform="translate(108.35,166.61)" d="M3,0A3,3 0 1,1 0,-3A3,3 0 0,1 3,0Z" style="opacity: 1; stroke-width: 0px; fill: rgb(255, 127, 14); fill-opacity: 1;"/><path class="point" transform="translate(153,590.48)" d="M3,0A3,3 0 1,1 0,-3A3,3 0 0,1 3,0Z" style="opacity: 1; stroke-width: 0px; fill: rgb(255, 127, 14); fill-opacity: 1;"/><path class="point" transform="translate(197.65,536.73)" d="M3,0A3,3 0 1,1 0,-3A3,3 0 0,1 3,0Z" style="opacity: 1; stroke-width: 0px; fill: rgb(255, 127, 14); fill-opacity: 1;"/><path class="point" transform="translate(242.3,566.44)" d="M3,0A3,3 0 1,1 0,-3A3,3 0 0,1 3,0Z" style="opacity: 1; stroke-width: 0px; fill: rgb(255, 127, 14); fill-opacity: 1;"/><path class="point" transform="translate(286.95,431.66)" d="M3,0A3,3 0 1,1 0,-3A3,3 0 0,1 3,0Z" style="opacity: 1; stroke-width: 0px; fill: rgb(255, 127, 14); fill-opacity: 1;"/></g><g class="text"/></g><g class="trace scatter trace4ad37e" style="stroke-miterlimit: 2; opacity: 1;"><g class="fills"/><g class="errorbars"/><g class="lines"><path class="js-line" d="M19.05,50.48L63.7,245.47L108.35,430.56L153,613.75L197.65,548.08L242.3,392.24L286.95,404.22" style="vector-effect: none; fill: none; stroke: rgb(44, 160, 44); stroke-opacity: 1; stroke-width: 3.5px; opacity: 1;"/></g><g class="points"><path class="point" transform="translate(19.05,50.48)" d="M3,0A3,3 0 1,1 0,-3A3,3 0 0,1 3,0Z" style="opacity: 1; stroke-width: 0px; fill: rgb(44, 160, 44); fill-opacity: 1;"/><path class="point" transform="translate(63.7,245.47)" d="M3,0A3,3 0 1,1 0,-3A3,3 0 0,1 3,0Z" style="opacity: 1; stroke-width: 0px; fill: rgb(44, 160, 44); fill-opacity: 1;"/><path class="point" transform="translate(108.35,430.56)" d="M3,0A3,3 0 1,1 0,-3A3,3 0 0,1 3,0Z" style="opacity: 1; stroke-width: 0px; fill: rgb(44, 160, 44); fill-opacity: 1;"/><path class="point" transform="translate(153,613.75)" d="M3,0A3,3 0 1,1 0,-3A3,3 0 0,1 3,0Z" style="opacity: 1; stroke-width: 0px; fill: rgb(44, 160, 44); fill-opacity: 1;"/><path class="point" transform="translate(197.65,548.08)" d="M3,0A3,3 0 1,1 0,-3A3,3 0 0,1 3,0Z" style="opacity: 1; stroke-width: 0px; fill: rgb(44, 160, 44); fill-opacity: 1;"/><path class="point" transform="translate(242.3,392.24)" d="M3,0A3,3 0 1,1 0,-3A3,3 0 0,1 3,0Z" style="opacity: 1; stroke-width: 0px; fill: rgb(44, 160, 44); fill-opacity: 1;"/><path class="point" transform="translate(286.95,404.22)" d="M3,0A3,3 0 1,1 0,-3A3,3 0 0,1 3,0Z" style="opacity: 1; stroke-width: 0px; fill: rgb(44, 160, 44); fill-opacity: 1;"/></g><g class="text"/></g><g class="trace scatter trace5c6baf" style="stroke-miterlimit: 2; opacity: 1;"><g class="fills"/><g class="errorbars"/><g class="lines"><path class="js-line" d="M19.05,36.25L63.7,57.88L108.35,115.05L153,219.97L197.65,228.09L242.3,206.67L286.95,239.36" style="vector-effect: none; fill: none; stroke: rgb(214, 39, 40); stroke-opacity: 1; stroke-width: 3.5px; opacity: 1;"/></g><g class="points"><path class="point" transform="translate(19.05,36.25)" d="M3,0A3,3 0 1,1 0,-3A3,3 0 0,1 3,0Z" style="opacity: 1; stroke-width: 0px; fill: rgb(214, 39, 40); fill-opacity: 1;"/><path class="point" transform="translate(63.7,57.88)" d="M3,0A3,3 0 1,1 0,-3A3,3 0 0,1 3,0Z" style="opacity: 1; stroke-width: 0px; fill: rgb(214, 39, 40); fill-opacity: 1;"/><path class="point" transform="translate(108.35,115.05)" d="M3,0A3,3 0 1,1 0,-3A3,3 0 0,1 3,0Z" style="opacity: 1; stroke-width: 0px; fill: rgb(214, 39, 40); fill-opacity: 1;"/><path class="point" transform="translate(153,219.97)" d="M3,0A3,3 0 1,1 0,-3A3,3 0 0,1 3,0Z" style="opacity: 1; stroke-width: 0px; fill: rgb(214, 39, 40); fill-opacity: 1;"/><path class="point" transform="translate(197.65,228.09)" d="M3,0A3,3 0 1,1 0,-3A3,3 0 0,1 3,0Z" style="opacity: 1; stroke-width: 0px; fill: rgb(214, 39, 40); fill-opacity: 1;"/><path class="point" transform="translate(242.3,206.67)" d="M3,0A3,3 0 1,1 0,-3A3,3 0 0,1 3,0Z" style="opacity: 1; stroke-width: 0px; fill: rgb(214, 39, 40); fill-opacity: 1;"/><path class="point" transform="translate(286.95,239.36)" d="M3,0A3,3 0 1,1 0,-3A3,3 0 0,1 3,0Z" style="opacity: 1; stroke-width: 0px; fill: rgb(214, 39, 40); fill-opacity: 1;"/></g><g class="text"/></g><g class="trace scatter trace85356e" style="stroke-miterlimit: 2; opacity: 1;"><g class="fills"/><g class="errorbars"><g class="errorbar" style="opacity: 1;"><path class="yerror" d="M14.05,63.21h10m-5,0V263.76m-5,0h10" style="vector-effect: none; stroke-width: 3px; stroke: rgb(148, 103, 189); stroke-opacity: 1;"/></g><g class="errorbar" style="opacity: 1;"><path class="yerror" d="M58.7,120.65h10m-5,0V379.94m-5,0h10" style="vector-effect: none; stroke-width: 3px; stroke: rgb(148, 103, 189); stroke-opacity: 1;"/></g><g class="errorbar" style="opacity: 1;"><path class="yerror" d="M103.35,219.32h10m-5,0V340.12m-5,0h10" style="vector-effect: none; stroke-width: 3px; stroke: rgb(148, 103, 189); stroke-opacity: 1;"/></g><g class="errorbar" style="opacity: 1;"><path class="yerror" d="M148,258.38h10m-5,0V431.7m-5,0h10" style="vector-effect: none; stroke-width: 3px; stroke: rgb(148, 103, 189); stroke-opacity: 1;"/></g><g class="errorbar" style="opacity: 1;"><path class="yerror" d="M192.65,235.11h10m-5,0V382.07m-5,0h10" style="vector-effect: none; stroke-width: 3px; stroke: rgb(148, 103, 189); stroke-opacity: 1;"/></g><g class="errorbar" style="opacity: 1;"><path class="yerror" d="M237.3,220.91h10m-5,0V584.44m-5,0h10" style="vector-effect: none; stroke-width: 3px; stroke: rgb(148, 103, 189); stroke-opacity: 1;"/></g><g class="errorbar" style="opacity: 1;"><path class="yerror" d="M281.95,319.03h10m-5,0V515.88m-5,0h10" style="vector-effect: none; stroke-width: 3px; stroke: rgb(148, 103, 189); stroke-opacity: 1;"/></g></g><g class="lines"><path class="js-line" d="M19.05,132.06L108.35,267.82L153,321.18L197.65,291.18L242.3,311.82L286.95,387.11" style="vector-effect: none; fill: none; stroke: rgb(148, 103, 189); stroke-opacity: 1; stroke-width: 3.5px; opacity: 1;"/></g><g class="points"><path class="point" transform="translate(19.05,132.06)" d="M3,0A3,3 0 1,1 0,-3A3,3 0 0,1 3,0Z" style="opacity: 1; stroke-width: 0px; fill: rgb(148, 103, 189); fill-opacity: 1;"/><path class="point" transform="translate(63.7,199.9)" d="M3,0A3,3 0 1,1 0,-3A3,3 0 0,1 3,0Z" style="opacity: 1; stroke-width: 0px; fill: rgb(148, 103, 189); fill-opacity: 1;"/><path class="point" transform="translate(108.35,267.82)" d="M3,0A3,3 0 1,1 0,-3A3,3 0 0,1 3,0Z" style="opacity: 1; stroke-width: 0px; fill: rgb(148, 103, 189); fill-opacity: 1;"/><path class="point" transform="translate(153,321.18)" d="M3,0A3,3 0 1,1 0,-3A3,3 0 0,1 3,0Z" style="opacity: 1; stroke-width: 0px; fill: rgb(148, 103, 189); fill-opacity: 1;"/><path class="point" transform="translate(197.65,291.18)" d="M3,0A3,3 0 1,1 0,-3A3,3 0 0,1 3,0Z" style="opacity: 1; stroke-width: 0px; fill: rgb(148, 103, 189); fill-opacity: 1;"/><path class="point" transform="translate(242.3,311.82)" d="M3,0A3,3 0 1,1 0,-3A3,3 0 0,1 3,0Z" style="opacity: 1; stroke-width: 0px; fill: rgb(148, 103, 189); fill-opacity: 1;"/><path class="point" transform="translate(286.95,387.11)" d="M3,0A3,3 0 1,1 0,-3A3,3 0 0,1 3,0Z" style="opacity: 1; stroke-width: 0px; fill: rgb(148, 103, 189); fill-opacity: 1;"/></g><g class="text"/></g></g></g><g class="overplot"/><path class="xlines-above crisp" d="M117,658H427M117,6H427" style="fill: none; stroke-width: 2px; stroke: rgb(0, 0, 0); stroke-opacity: 1;"/><path class="ylines-above crisp" d="M118,7V657M426,7V657" style="fill: none; stroke-width: 2px; stroke: rgb(0, 0, 0); stroke-opacity: 1;"/><g class="overlines-above"/><g class="xaxislayer-above"><path class="xtick ticks crisp" d="M0,659v5" transform="translate(138.05,0)" style="stroke: rgb(68, 68, 68); stroke-opacity: 1; stroke-width: 1px;"/><path class="xtick ticks crisp" d="M0,659v5" transform="translate(182.7,0)" style="stroke: rgb(68, 68, 68); stroke-opacity: 1; stroke-width: 1px;"/><path class="xtick ticks crisp" d="M0,659v5" transform="translate(227.35,0)" style="stroke: rgb(68, 68, 68); stroke-opacity: 1; stroke-width: 1px;"/><path class="xtick ticks crisp" d="M0,659v5" transform="translate(272,0)" style="stroke: rgb(68, 68, 68); stroke-opacity: 1; stroke-width: 1px;"/><path class="xtick ticks crisp" d="M0,659v5" transform="translate(316.65,0)" style="stroke: rgb(68, 68, 68); stroke-opacity: 1; stroke-width: 1px;"/><path class="xtick ticks crisp" d="M0,659v5" transform="translate(361.3,0)" style="stroke: rgb(68, 68, 68); stroke-opacity: 1; stroke-width: 1px;"/><path class="xtick ticks crisp" d="M0,659v5" transform="translate(405.95,0)" style="stroke: rgb(68, 68, 68); stroke-opacity: 1; stroke-width: 1px;"/><g class="xtick"><text text-anchor="start" x="0" y="700" transform="translate(138.05,0) rotate(90,0,685)" style="font-family: 'Open Sans', verdana, arial, sans-serif; font-size: 30px; fill: rgb(42, 63, 95); fill-opacity: 1; white-space: pre; opacity: 1;">16</text></g><g class="xtick"><text text-anchor="start" x="0" y="700" style="font-family: 'Open Sans', verdana, arial, sans-serif; font-size: 30px; fill: rgb(42, 63, 95); fill-opacity: 1; white-space: pre; opacity: 1;" transform="translate(182.7,0) rotate(90,0,685)">32</text></g><g class="xtick"><text text-anchor="start" x="0" y="700" style="font-family: 'Open Sans', verdana, arial, sans-serif; font-size: 30px; fill: rgb(42, 63, 95); fill-opacity: 1; white-space: pre; opacity: 1;" transform="translate(227.35,0) rotate(90,0,685)">64</text></g><g class="xtick"><text text-anchor="start" x="0" y="700" style="font-family: 'Open Sans', verdana, arial, sans-serif; font-size: 30px; fill: rgb(42, 63, 95); fill-opacity: 1; white-space: pre; opacity: 1;" transform="translate(272,0) rotate(90,0,685)">128</text></g><g class="xtick"><text text-anchor="start" x="0" y="700" style="font-family: 'Open Sans', verdana, arial, sans-serif; font-size: 30px; fill: rgb(42, 63, 95); fill-opacity: 1; white-space: pre; opacity: 1;" transform="translate(316.65,0) rotate(90,0,685)">256</text></g><g class="xtick"><text text-anchor="start" x="0" y="700" style="font-family: 'Open Sans', verdana, arial, sans-serif; font-size: 30px; fill: rgb(42, 63, 95); fill-opacity: 1; white-space: pre; opacity: 1;" transform="translate(361.3,0) rotate(90,0,685)">512</text></g><g class="xtick"><text text-anchor="start" x="0" y="700" style="font-family: 'Open Sans', verdana, arial, sans-serif; font-size: 30px; fill: rgb(42, 63, 95); fill-opacity: 1; white-space: pre; opacity: 1;" transform="translate(405.95,0) rotate(90,0,685)">1024</text></g></g><g class="yaxislayer-above"><path class="ytick ticks crisp" d="M117,0h-5" transform="translate(0,631.26)" style="stroke: rgb(68, 68, 68); stroke-opacity: 1; stroke-width: 1px;"/><path class="ytick ticks crisp" d="M117,0h-5" transform="translate(0,597.97)" style="stroke: rgb(68, 68, 68); stroke-opacity: 1; stroke-width: 1px;"/><path class="ytick ticks crisp" d="M117,0h-5" transform="translate(0,570.76)" style="stroke: rgb(68, 68, 68); stroke-opacity: 1; stroke-width: 1px;"/><path class="ytick ticks crisp" d="M117,0h-5" transform="translate(0,547.76)" style="stroke: rgb(68, 68, 68); stroke-opacity: 1; stroke-width: 1px;"/><path class="ytick ticks crisp" d="M117,0h-5" transform="translate(0,527.84)" style="stroke: rgb(68, 68, 68); stroke-opacity: 1; stroke-width: 1px;"/><path class="ytick ticks crisp" d="M117,0h-5" transform="translate(0,510.26)" style="stroke: rgb(68, 68, 68); stroke-opacity: 1; stroke-width: 1px;"/><path class="ytick ticks crisp" d="M117,0h-5" transform="translate(0,494.54)" style="stroke: rgb(68, 68, 68); stroke-opacity: 1; stroke-width: 1px;"/><path class="ytick ticks crisp" d="M117,0h-5" transform="translate(0,391.11)" style="stroke: rgb(68, 68, 68); stroke-opacity: 1; stroke-width: 1px;"/><path class="ytick ticks crisp" d="M117,0h-5" transform="translate(0,330.61)" style="stroke: rgb(68, 68, 68); stroke-opacity: 1; stroke-width: 1px;"/><path class="ytick ticks crisp" d="M117,0h-5" transform="translate(0,287.69)" style="stroke: rgb(68, 68, 68); stroke-opacity: 1; stroke-width: 1px;"/><path class="ytick ticks crisp" d="M117,0h-5" transform="translate(0,254.39)" style="stroke: rgb(68, 68, 68); stroke-opacity: 1; stroke-width: 1px;"/><path class="ytick ticks crisp" d="M117,0h-5" transform="translate(0,227.19)" style="stroke: rgb(68, 68, 68); stroke-opacity: 1; stroke-width: 1px;"/><path class="ytick ticks crisp" d="M117,0h-5" transform="translate(0,204.18)" style="stroke: rgb(68, 68, 68); stroke-opacity: 1; stroke-width: 1px;"/><path class="ytick ticks crisp" d="M117,0h-5" transform="translate(0,184.26)" style="stroke: rgb(68, 68, 68); stroke-opacity: 1; stroke-width: 1px;"/><path class="ytick ticks crisp" d="M117,0h-5" transform="translate(0,166.69)" style="stroke: rgb(68, 68, 68); stroke-opacity: 1; stroke-width: 1px;"/><path class="ytick ticks crisp" d="M117,0h-5" transform="translate(0,150.96)" style="stroke: rgb(68, 68, 68); stroke-opacity: 1; stroke-width: 1px;"/><path class="ytick ticks crisp" d="M117,0h-5" transform="translate(0,47.54)" style="stroke: rgb(68, 68, 68); stroke-opacity: 1; stroke-width: 1px;"/><g class="ytick"><text text-anchor="end" x="98.5" y="10.5" transform="translate(0,631.26)" style="font-family: 'Open Sans', verdana, arial, sans-serif; font-size: 30px; fill: rgb(42, 63, 95); fill-opacity: 1; white-space: pre; opacity: 1;">0.0</text></g><g class="ytick"><text text-anchor="end" x="98.5" y="10.5" style="font-family: 'Open Sans', verdana, arial, sans-serif; font-size: 30px; fill: rgb(42, 63, 95); fill-opacity: 1; white-space: pre; opacity: 1;" transform="translate(0,597.97)">0.0</text></g><g class="ytick"><text text-anchor="end" x="98.5" y="10.5" style="font-family: 'Open Sans', verdana, arial, sans-serif; font-size: 30px; fill: rgb(42, 63, 95); fill-opacity: 1; white-space: pre; opacity: 1;" transform="translate(0,570.76)">0.1</text></g><g class="ytick"><text text-anchor="end" x="98.5" y="10.5" style="font-family: 'Open Sans', verdana, arial, sans-serif; font-size: 30px; fill: rgb(42, 63, 95); fill-opacity: 1; white-space: pre; opacity: 1;" transform="translate(0,547.76)">0.1</text></g><g class="ytick"><text text-anchor="end" x="98.5" y="10.5" style="font-family: 'Open Sans', verdana, arial, sans-serif; font-size: 30px; fill: rgb(42, 63, 95); fill-opacity: 1; white-space: pre; opacity: 1;" transform="translate(0,527.84)">0.1</text></g><g class="ytick"><text text-anchor="end" x="98.5" y="10.5" style="font-family: 'Open Sans', verdana, arial, sans-serif; font-size: 30px; fill: rgb(42, 63, 95); fill-opacity: 1; white-space: pre; opacity: 1;" transform="translate(0,510.26)">0.1</text></g><g class="ytick"><text text-anchor="end" x="98.5" y="10.5" style="font-family: 'Open Sans', verdana, arial, sans-serif; font-size: 30px; fill: rgb(42, 63, 95); fill-opacity: 1; white-space: pre; opacity: 1;" transform="translate(0,494.54)">0.1</text></g><g class="ytick"><text text-anchor="end" x="98.5" y="10.5" style="font-family: 'Open Sans', verdana, arial, sans-serif; font-size: 30px; fill: rgb(42, 63, 95); fill-opacity: 1; white-space: pre; opacity: 1;" transform="translate(0,391.11)">0.2</text></g><g class="ytick"><text text-anchor="end" x="98.5" y="10.5" style="font-family: 'Open Sans', verdana, arial, sans-serif; font-size: 30px; fill: rgb(42, 63, 95); fill-opacity: 1; white-space: pre; opacity: 1;" transform="translate(0,330.61)">0.3</text></g><g class="ytick"><text text-anchor="end" x="98.5" y="10.5" style="font-family: 'Open Sans', verdana, arial, sans-serif; font-size: 30px; fill: rgb(42, 63, 95); fill-opacity: 1; white-space: pre; opacity: 1;" transform="translate(0,287.69)">0.4</text></g><g class="ytick"><text text-anchor="end" x="98.5" y="10.5" style="font-family: 'Open Sans', verdana, arial, sans-serif; font-size: 30px; fill: rgb(42, 63, 95); fill-opacity: 1; white-space: pre; opacity: 1;" transform="translate(0,254.39)">0.5</text></g><g class="ytick"><text text-anchor="end" x="98.5" y="10.5" style="font-family: 'Open Sans', verdana, arial, sans-serif; font-size: 30px; fill: rgb(42, 63, 95); fill-opacity: 1; white-space: pre; opacity: 1;" transform="translate(0,227.19)">0.6</text></g><g class="ytick"><text text-anchor="end" x="98.5" y="10.5" style="font-family: 'Open Sans', verdana, arial, sans-serif; font-size: 30px; fill: rgb(42, 63, 95); fill-opacity: 1; white-space: pre; opacity: 1;" transform="translate(0,204.18)">0.7</text></g><g class="ytick"><text text-anchor="end" x="98.5" y="10.5" style="font-family: 'Open Sans', verdana, arial, sans-serif; font-size: 30px; fill: rgb(42, 63, 95); fill-opacity: 1; white-space: pre; opacity: 1;" transform="translate(0,184.26)">0.8</text></g><g class="ytick"><text text-anchor="end" x="98.5" y="10.5" style="font-family: 'Open Sans', verdana, arial, sans-serif; font-size: 30px; fill: rgb(42, 63, 95); fill-opacity: 1; white-space: pre; opacity: 1;" transform="translate(0,166.69)">0.9</text></g><g class="ytick"><text text-anchor="end" x="98.5" y="10.5" style="font-family: 'Open Sans', verdana, arial, sans-serif; font-size: 30px; fill: rgb(42, 63, 95); fill-opacity: 1; white-space: pre; opacity: 1;" transform="translate(0,150.96)">1.0</text></g><g class="ytick"><text text-anchor="end" x="106" y="10.5" style="font-family: 'Open Sans', verdana, arial, sans-serif; font-size: 30px; fill: rgb(42, 63, 95); fill-opacity: 1; white-space: pre; opacity: 1;" transform="translate(0,47.54)">2.0</text></g></g><g class="overaxes-above"/></g></g><g class="polarlayer"/><g class="smithlayer"/><g class="ternarylayer"/><g class="geolayer"/><g class="funnelarealayer"/><g class="pielayer"/><g class="iciclelayer"/><g class="treemaplayer"/><g class="sunburstlayer"/><g class="glimages"/><defs id="topdefs-23b7c5"><g class="clips"/><clipPath id="legend23b7c5"><rect width="170" height="262" x="0" y="0"/></clipPath></defs><g class="layer-above"><g class="imagelayer"/><g class="shapelayer"/></g><g class="infolayer"><g class="legend" pointer-events="all" transform="translate(425,7)"><rect class="bg" shape-rendering="crispEdges" width="170" height="262" x="0" y="0" style="stroke: rgb(68, 68, 68); stroke-opacity: 1; fill: rgb(0, 0, 0); fill-opacity: 0; stroke-width: 0px;"/><g class="scrollbox" transform="" clip-path="url(#legend23b7c5)"><g class="groups"><g class="traces" transform="translate(0,26)" style="opacity: 1;"><text class="legendtext" text-anchor="start" x="40" y="11.7" style="font-family: Arial, bold; font-size: 30px; fill: rgb(0, 0, 0); fill-opacity: 1; white-space: pre;">ILP (p=0)</text><g class="layers" style="opacity: 1;"><g class="legendfill"/><g class="legendlines"><path class="js-line" d="M5,0h30" style="fill: none; stroke: rgb(31, 119, 180); stroke-opacity: 1; stroke-dasharray: 3.5px, 3.5px; stroke-width: 3.5px;"/></g><g class="legendsymbols"><g class="legendpoints"><path class="scatterpts" transform="translate(20,0)" d="M3,0A3,3 0 1,1 0,-3A3,3 0 0,1 3,0Z" style="opacity: 1; stroke-width: 0px; fill: rgb(31, 119, 180); fill-opacity: 1;"/></g></g></g><rect class="legendtoggle" x="0" y="-21" width="164.234375" height="42" style="fill: rgb(0, 0, 0); fill-opacity: 0;"/></g><g class="traces" transform="translate(0,68)" style="opacity: 1;"><text class="legendtext" text-anchor="start" x="40" y="11.7" style="font-family: Arial, bold; font-size: 30px; fill: rgb(0, 0, 0); fill-opacity: 1; white-space: pre;">ILP (p=1)</text><g class="layers" style="opacity: 1;"><g class="legendfill"/><g class="legendlines"><path class="js-line" d="M5,0h30" style="fill: none; stroke: rgb(31, 119, 180); stroke-opacity: 1; stroke-width: 3.5px;"/></g><g class="legendsymbols"><g class="legendpoints"><path class="scatterpts" transform="translate(20,0)" d="M3,0A3,3 0 1,1 0,-3A3,3 0 0,1 3,0Z" style="opacity: 1; stroke-width: 0px; fill: rgb(31, 119, 180); fill-opacity: 1;"/></g></g></g><rect class="legendtoggle" x="0" y="-21" width="164.234375" height="42" style="fill: rgb(0, 0, 0); fill-opacity: 0;"/></g><g class="traces" transform="translate(0,110)" style="opacity: 1;"><text class="legendtext" text-anchor="start" x="40" y="11.7" style="font-family: Arial, bold; font-size: 30px; fill: rgb(0, 0, 0); fill-opacity: 1; white-space: pre;">SML</text><g class="layers" style="opacity: 1;"><g class="legendfill"/><g class="legendlines"><path class="js-line" d="M5,0h30" style="fill: none; stroke: rgb(255, 127, 14); stroke-opacity: 1; stroke-width: 3.5px;"/></g><g class="legendsymbols"><g class="legendpoints"><path class="scatterpts" transform="translate(20,0)" d="M3,0A3,3 0 1,1 0,-3A3,3 0 0,1 3,0Z" style="opacity: 1; stroke-width: 0px; fill: rgb(255, 127, 14); fill-opacity: 1;"/></g></g></g><rect class="legendtoggle" x="0" y="-21" width="164.234375" height="42" style="fill: rgb(0, 0, 0); fill-opacity: 0;"/></g><g class="traces" transform="translate(0,152)" style="opacity: 1;"><text class="legendtext" text-anchor="start" x="40" y="11.7" style="font-family: Arial, bold; font-size: 30px; fill: rgb(0, 0, 0); fill-opacity: 1; white-space: pre;">FPS</text><g class="layers" style="opacity: 1;"><g class="legendfill"/><g class="legendlines"><path class="js-line" d="M5,0h30" style="fill: none; stroke: rgb(44, 160, 44); stroke-opacity: 1; stroke-width: 3.5px;"/></g><g class="legendsymbols"><g class="legendpoints"><path class="scatterpts" transform="translate(20,0)" d="M3,0A3,3 0 1,1 0,-3A3,3 0 0,1 3,0Z" style="opacity: 1; stroke-width: 0px; fill: rgb(44, 160, 44); fill-opacity: 1;"/></g></g></g><rect class="legendtoggle" x="0" y="-21" width="164.234375" height="42" style="fill: rgb(0, 0, 0); fill-opacity: 0;"/></g><g class="traces" transform="translate(0,194)" style="opacity: 1;"><text class="legendtext" text-anchor="start" x="40" y="11.7" style="font-family: Arial, bold; font-size: 30px; fill: rgb(0, 0, 0); fill-opacity: 1; white-space: pre;">CUR</text><g class="layers" style="opacity: 1;"><g class="legendfill"/><g class="legendlines"><path class="js-line" d="M5,0h30" style="fill: none; stroke: rgb(214, 39, 40); stroke-opacity: 1; stroke-width: 3.5px;"/></g><g class="legendsymbols"><g class="legendpoints"><path class="scatterpts" transform="translate(20,0)" d="M3,0A3,3 0 1,1 0,-3A3,3 0 0,1 3,0Z" style="opacity: 1; stroke-width: 0px; fill: rgb(214, 39, 40); fill-opacity: 1;"/></g></g></g><rect class="legendtoggle" x="0" y="-21" width="164.234375" height="42" style="fill: rgb(0, 0, 0); fill-opacity: 0;"/></g><g class="traces" transform="translate(0,236)" style="opacity: 1;"><text class="legendtext" text-anchor="start" x="40" y="11.7" style="font-family: Arial, bold; font-size: 30px; fill: rgb(0, 0, 0); fill-opacity: 1; white-space: pre;">Random</text><g class="layers" style="opacity: 1;"><g class="legendfill"/><g class="legendlines"><path class="js-line" d="M5,0h30" style="fill: none; stroke: rgb(148, 103, 189); stroke-opacity: 1; stroke-width: 3.5px;"/></g><g class="legendsymbols"><g class="legendpoints"><path class="scatterpts" transform="translate(20,0)" d="M3,0A3,3 0 1,1 0,-3A3,3 0 0,1 3,0Z" style="opacity: 1; stroke-width: 0px; fill: rgb(148, 103, 189); fill-opacity: 1;"/></g></g></g><rect class="legendtoggle" x="0" y="-21" width="164.234375" height="42" style="fill: rgb(0, 0, 0); fill-opacity: 0;"/></g></g></g><rect class="scrollbar" rx="20" ry="3" width="0" height="0" x="0" y="0" style="fill: rgb(128, 139, 164); fill-opacity: 1;"/></g><g class="g-gtitle"/><g class="g-xtitle" transform="translate(0,-2.2250000000000227)"><text class="xtitle" x="272" y="794.225" text-anchor="middle" style="font-family: Arial, bold; font-size: 38px; fill: rgb(0, 0, 0); opacity: 1; font-weight: normal; white-space: pre;"><tspan style="font-style:italic">N</tspan></text></g><g class="g-ytitle" transform="translate(34.365234375,0)"><text class="ytitle" transform="rotate(-90,5.603125000000006,332)" x="5.603125000000006" y="332" text-anchor="middle" style="font-family: Arial, bold; font-size: 38px; fill: rgb(0, 0, 0); opacity: 1; font-weight: normal; white-space: pre;">MAPE [%]× 10​<tspan style="font-size:70%" dy="-0.6em">-2</tspan><tspan dy="0.42em">​</tspan></text></g></g></svg>